<?xml version="1.0" encoding="UTF-8"?>
<svg version="1.1" xmlns="http://www.w3.org/2000/svg" width="512" height="512">
<path d="M0 0 C1.01790619 0.00215515 2.03581238 0.0043103 3.08456421 0.00653076 C17.69363523 0.05620146 32.02575853 0.30709809 46.375 3.3125 C47.34985352 3.51117676 48.32470703 3.70985352 49.32910156 3.91455078 C97.7109774 14.03517194 141.69928269 35.9516877 177.375 70.3125 C178.3640332 71.26068604 178.3640332 71.26068604 179.37304688 72.22802734 C188.86130305 81.37247479 197.6012044 90.66984009 205.375 101.3125 C206.23306152 102.46355017 207.09113451 103.61459177 207.94921875 104.765625 C213.98736829 112.95680614 219.34595521 121.47054105 224.375 130.3125 C224.73948242 130.94430176 225.10396484 131.57610352 225.47949219 132.22705078 C247.08534998 169.97532572 256.85198095 212.74189997 256.6875 255.9375 C256.68534485 256.95540619 256.6831897 257.97331238 256.68096924 259.02206421 C256.63129854 273.63113523 256.38040191 287.96325853 253.375 302.3125 C253.07698486 303.77478027 253.07698486 303.77478027 252.77294922 305.26660156 C243.72170074 348.53631524 225.33729329 388.73769334 196.375 422.3125 C195.74078125 423.05757813 195.1065625 423.80265625 194.453125 424.5703125 C182.64198485 438.07529833 169.89139772 450.74668743 155.375 461.3125 C154.22505169 462.16899066 153.07531411 463.02576433 151.92578125 463.8828125 C143.73565742 469.92284209 135.23120382 475.30617614 126.375 480.3125 C125.66778809 480.7146875 124.96057617 481.116875 124.23193359 481.53125 C98.02725553 496.28470851 69.08953614 505.81420334 39.375 510.3125 C38.25617432 510.48982666 37.13734863 510.66715332 35.98461914 510.84985352 C24.26264053 512.53126341 12.64001024 512.66984341 0.8125 512.625 C-0.71810562 512.62176727 -0.71810562 512.62176727 -2.27963257 512.61846924 C-16.90710524 512.56883352 -31.25763838 512.32169712 -45.625 509.3125 C-47.08728027 509.01448486 -47.08728027 509.01448486 -48.57910156 508.71044922 C-91.84881524 499.65920074 -132.05019334 481.27479329 -165.625 452.3125 C-166.37007813 451.67828125 -167.11515625 451.0440625 -167.8828125 450.390625 C-181.38779833 438.57948485 -194.05918743 425.82889772 -204.625 411.3125 C-205.48149066 410.16255169 -206.33826433 409.01281411 -207.1953125 407.86328125 C-213.23534209 399.67315742 -218.61867614 391.16870382 -223.625 382.3125 C-224.0271875 381.60528809 -224.429375 380.89807617 -224.84375 380.16943359 C-237.8691741 357.03404164 -246.61801461 331.86287591 -251.9375 305.875 C-252.08485596 305.15610596 -252.23221191 304.43721191 -252.3840332 303.6965332 C-255.35789088 288.05024391 -255.99800362 272.57681954 -255.9375 256.6875 C-255.93534485 255.66959381 -255.9331897 254.65168762 -255.93096924 253.60293579 C-255.88129854 238.99386477 -255.63040191 224.66174147 -252.625 210.3125 C-252.42632324 209.33764648 -252.22764648 208.36279297 -252.02294922 207.35839844 C-241.90232806 158.9765226 -219.9858123 114.98821731 -185.625 79.3125 C-184.99287598 78.65314453 -184.36075195 77.99378906 -183.70947266 77.31445312 C-174.56502521 67.82619695 -165.26765991 59.0862956 -154.625 51.3125 C-153.47394983 50.45443848 -152.32290823 49.59636549 -151.171875 48.73828125 C-142.98224019 42.70072604 -134.47961724 37.31792698 -125.625 32.3125 C-124.91778809 31.9103125 -124.21057617 31.508125 -123.48193359 31.09375 C-100.34654164 18.0683259 -75.17537591 9.31948539 -49.1875 4 C-48.46860596 3.85264404 -47.74971191 3.70528809 -47.0090332 3.5534668 C-31.36274391 0.57960912 -15.88931954 -0.06050362 0 0 Z " fill="#05C553" transform="translate(255.625,-0.3125)"/>
<path d="M0 0 C8.30046813 7.11468697 15.9728977 14.52482212 23.05859375 22.83984375 C25.60109745 25.66882674 28.29457688 28.32769606 31 31 C34.87728374 34.82987694 38.5624361 38.72051306 42.09375 42.875 C45.1200153 46.24854164 48.37210706 49.39203536 51.59545898 52.57592773 C54.95060894 55.9058233 58.09725452 59.33931399 61.16015625 62.94140625 C63.50495064 65.56498723 65.99630568 68.02990104 68.5 70.5 C71.59491133 73.55338283 74.61934257 76.62323661 77.4375 79.9375 C80.45352827 83.476791 83.69447901 86.73494445 87 90 C90.87728374 93.82987694 94.5624361 97.72051306 98.09375 101.875 C100.62250439 104.69393932 103.30646001 107.33938837 106 110 C109.87727963 113.82988013 113.56243606 117.72051302 117.09375 121.875 C120.11794473 125.24623347 123.36763822 128.38770413 126.58886719 131.56933594 C130.0073082 134.96196116 133.23952687 138.44489137 136.33203125 142.140625 C138.82498479 144.91965518 141.65350283 147.33352803 144.49609375 149.75 C147.58364822 154.36930227 146.06982956 160.04029135 145.15234375 165.22265625 C144.75960906 167.17177159 144.35399608 169.11832353 143.9375 171.0625 C143.71344482 172.11179687 143.48938965 173.16109375 143.25854492 174.2421875 C133.04131775 220.56120855 110.9313305 262.8084673 78 297 C77.36787598 297.65935547 76.73575195 298.31871094 76.08447266 298.99804688 C66.94002521 308.48630305 57.64265991 317.2262044 47 325 C45.84894983 325.85806152 44.69790823 326.71613451 43.546875 327.57421875 C35.35724019 333.61177396 26.85461724 338.99457302 18 344 C17.29278809 344.4021875 16.58557617 344.804375 15.85693359 345.21875 C-31.61139323 371.94382514 -31.61139323 371.94382514 -53 370 C-54.73828125 369.05712891 -54.73828125 369.05712891 -56.3125 367.7265625 C-56.90587158 367.23687988 -57.49924316 366.74719727 -58.1105957 366.24267578 C-58.73409912 365.70884277 -59.35760254 365.17500977 -60 364.625 C-61.34676436 363.50933915 -62.69443505 362.39477154 -64.04296875 361.28125 C-64.71247559 360.72308594 -65.38198242 360.16492188 -66.07177734 359.58984375 C-68.76930031 357.36570225 -71.53200429 355.24481884 -74.3125 353.125 C-75.37271915 352.31422469 -76.43260412 351.50301224 -77.4921875 350.69140625 C-78.32508301 350.05356201 -78.32508301 350.05356201 -79.17480469 349.40283203 C-88.72481985 342.06275885 -98.2081153 334.63495697 -107.67163086 327.18383789 C-112.43352129 323.43752622 -117.21522981 319.71702785 -122 316 C-127.90507595 311.41266751 -133.79692783 306.80942832 -139.671875 302.18359375 C-144.43374633 298.43744268 -149.21531987 294.71695789 -154 291 C-159.90507595 286.41266751 -165.79692783 281.80942832 -171.671875 277.18359375 C-176.43374863 273.43744087 -181.21558599 269.71730329 -186 266 C-187.52479265 264.81387029 -189.04953281 263.62767312 -190.57421875 262.44140625 C-193.40732048 260.23719761 -196.2435997 258.03718248 -199.08203125 255.83984375 C-200.32566107 254.87257611 -201.5691585 253.90513822 -202.8125 252.9375 C-203.36873047 252.50888672 -203.92496094 252.08027344 -204.49804688 251.63867188 C-207.96803142 248.9302869 -210.84659781 246.15340219 -214 243 C-194.53 243 -175.06 243 -155 243 C-155 209.34 -155 175.68 -155 141 C-123.98 141 -92.96 141 -61 141 C-61 174.66 -61 208.32 -61 243 C-40.87 243 -20.74 243 0 243 C0 162.81 0 82.62 0 0 Z " fill="#0A9F3F" transform="translate(364,136)"/>
<path d="M0 0 C19.8 0 39.6 0 60 0 C60 32.34 60 64.68 60 98 C91.02 98 122.04 98 154 98 C154 65.66 154 33.32 154 0 C173.8 0 193.6 0 214 0 C214 81.18 214 162.36 214 246 C194.2 246 174.4 246 154 246 C154 212.34 154 178.68 154 144 C122.98 144 91.96 144 60 144 C60 177.66 60 211.32 60 246 C40.2 246 20.4 246 0 246 C0 164.82 0 83.64 0 0 Z " fill="#FDFEFD" transform="translate(149,133)"/>
<path d="M0 0 C13.75799438 8.02549672 13.75799438 8.02549672 19.6171875 12.00390625 C20.60141693 12.66491585 20.60141693 12.66491585 21.60552979 13.33927917 C22.98881831 14.26841255 24.3711365 15.19899211 25.75250244 16.13098145 C29.38636969 18.58184334 33.02854623 21.02026369 36.671875 23.45703125 C37.390336 23.93759979 38.108797 24.41816833 38.84902954 24.91329956 C45.75737195 29.52377832 52.74917476 33.99314951 59.77636719 38.42041016 C66.04071381 42.37030141 72.20612044 46.44281336 78.3203125 50.62109375 C83.43478597 53.92758456 88.73940067 56.93131706 94 60 C94 72.54 94 85.08 94 98 C62.98 98 31.96 98 0 98 C0 65.66 0 33.32 0 0 Z " fill="#0A9F3F" transform="translate(209,133)"/>
</svg>
